<mxfile host="app.diagrams.net" agent="Mozilla/5.0 (Macintosh; Intel Mac OS X 10_15_7) AppleWebKit/537.36 (KHTML, like Gecko) Chrome/140.0.0.0 Safari/537.36" version="28.2.4">
  <diagram name="第 1 页" id="P1zgVmx2k-VH0yzBieHZ">
    <mxGraphModel dx="2678" dy="1191" grid="1" gridSize="10" guides="1" tooltips="1" connect="1" arrows="1" fold="1" page="1" pageScale="1" pageWidth="827" pageHeight="1169" math="1" shadow="0">
      <root>
        <mxCell id="0" />
        <mxCell id="1" parent="0" />
        <mxCell id="SX0KhMAPh3eLkheETd_z-7" style="edgeStyle=orthogonalEdgeStyle;rounded=0;orthogonalLoop=1;jettySize=auto;html=1;exitX=0.5;exitY=1;exitDx=0;exitDy=0;entryX=0.5;entryY=0;entryDx=0;entryDy=0;" parent="1" target="SX0KhMAPh3eLkheETd_z-3" edge="1">
          <mxGeometry relative="1" as="geometry">
            <mxPoint x="204" y="150" as="sourcePoint" />
            <Array as="points">
              <mxPoint x="204" y="160" />
              <mxPoint x="-9" y="160" />
            </Array>
          </mxGeometry>
        </mxCell>
        <mxCell id="SX0KhMAPh3eLkheETd_z-8" style="edgeStyle=orthogonalEdgeStyle;rounded=0;orthogonalLoop=1;jettySize=auto;html=1;exitX=0.5;exitY=1;exitDx=0;exitDy=0;" parent="1" source="SX0KhMAPh3eLkheETd_z-2" target="SX0KhMAPh3eLkheETd_z-6" edge="1">
          <mxGeometry relative="1" as="geometry">
            <Array as="points">
              <mxPoint x="220" y="160" />
              <mxPoint x="460" y="160" />
            </Array>
          </mxGeometry>
        </mxCell>
        <mxCell id="SX0KhMAPh3eLkheETd_z-2" value="input&lt;div&gt;(B, S, H)&lt;/div&gt;" style="rounded=1;whiteSpace=wrap;html=1;fontSize=10;" parent="1" vertex="1">
          <mxGeometry x="170" y="120" width="100" height="30" as="geometry" />
        </mxCell>
        <mxCell id="SX0KhMAPh3eLkheETd_z-3" value="&lt;div style=&quot;text-align: left;&quot;&gt;&lt;font&gt;&lt;span style=&quot;background-color: rgb(255, 255, 255); color: rgb(232, 62, 140); font-family: SFMono-Regular, Menlo, Monaco, Consolas, &amp;quot;Liberation Mono&amp;quot;, &amp;quot;Courier New&amp;quot;, monospace;&quot;&gt;&lt;span style=&quot;color: oklch(0.3039 0.04 213.68); font-family: fkGroteskNeue, ui-sans-serif, system-ui, -apple-system, &amp;quot;system-ui&amp;quot;, &amp;quot;Segoe UI&amp;quot;, Roboto, &amp;quot;Helvetica Neue&amp;quot;, Arial, &amp;quot;Noto Sans&amp;quot;, sans-serif, &amp;quot;Apple Color Emoji&amp;quot;, &amp;quot;Segoe UI Emoji&amp;quot;, &amp;quot;Segoe UI Symbol&amp;quot;, &amp;quot;Noto Color Emoji&amp;quot;, &amp;quot;Hiragino Sans&amp;quot;, &amp;quot;PingFang SC&amp;quot;, &amp;quot;Apple SD Gothic Neo&amp;quot;, &amp;quot;Yu Gothic&amp;quot;, &amp;quot;Microsoft YaHei&amp;quot;, &amp;quot;Microsoft JhengHei&amp;quot;, Meiryo; letter-spacing: 0.08px; background-color: oklch(0.9902 0.004 106.47);&quot;&gt;$$c_{t}^{Q}$$&lt;/span&gt;&lt;/span&gt;&lt;/font&gt;&lt;/div&gt;&lt;div style=&quot;text-align: left;&quot;&gt;&lt;font&gt;&lt;span style=&quot;background-color: rgb(255, 255, 255); color: rgb(232, 62, 140); font-family: SFMono-Regular, Menlo, Monaco, Consolas, &amp;quot;Liberation Mono&amp;quot;, &amp;quot;Courier New&amp;quot;, monospace;&quot;&gt;&lt;span style=&quot;color: oklch(0.3039 0.04 213.68); font-family: fkGroteskNeue, ui-sans-serif, system-ui, -apple-system, &amp;quot;system-ui&amp;quot;, &amp;quot;Segoe UI&amp;quot;, Roboto, &amp;quot;Helvetica Neue&amp;quot;, Arial, &amp;quot;Noto Sans&amp;quot;, sans-serif, &amp;quot;Apple Color Emoji&amp;quot;, &amp;quot;Segoe UI Emoji&amp;quot;, &amp;quot;Segoe UI Symbol&amp;quot;, &amp;quot;Noto Color Emoji&amp;quot;, &amp;quot;Hiragino Sans&amp;quot;, &amp;quot;PingFang SC&amp;quot;, &amp;quot;Apple SD Gothic Neo&amp;quot;, &amp;quot;Yu Gothic&amp;quot;, &amp;quot;Microsoft YaHei&amp;quot;, &amp;quot;Microsoft JhengHei&amp;quot;, Meiryo; letter-spacing: 0.08px; background-color: oklch(0.9902 0.004 106.47);&quot;&gt;&lt;font&gt;（B, S,q_lora_rank&lt;/font&gt;）&lt;/span&gt;&lt;/span&gt;&lt;/font&gt;&lt;/div&gt;" style="rounded=1;whiteSpace=wrap;html=1;fontSize=10;" parent="1" vertex="1">
          <mxGeometry x="-78.57" y="180" width="140" height="50" as="geometry" />
        </mxCell>
        <mxCell id="SX0KhMAPh3eLkheETd_z-6" value="&lt;div style=&quot;text-align: left;&quot;&gt;&lt;font&gt;&lt;span style=&quot;background-color: rgb(255, 255, 255); color: rgb(232, 62, 140); font-family: SFMono-Regular, Menlo, Monaco, Consolas, &amp;quot;Liberation Mono&amp;quot;, &amp;quot;Courier New&amp;quot;, monospace;&quot;&gt;&lt;span style=&quot;color: oklch(0.3039 0.04 213.68); font-family: fkGroteskNeue, ui-sans-serif, system-ui, -apple-system, &amp;quot;system-ui&amp;quot;, &amp;quot;Segoe UI&amp;quot;, Roboto, &amp;quot;Helvetica Neue&amp;quot;, Arial, &amp;quot;Noto Sans&amp;quot;, sans-serif, &amp;quot;Apple Color Emoji&amp;quot;, &amp;quot;Segoe UI Emoji&amp;quot;, &amp;quot;Segoe UI Symbol&amp;quot;, &amp;quot;Noto Color Emoji&amp;quot;, &amp;quot;Hiragino Sans&amp;quot;, &amp;quot;PingFang SC&amp;quot;, &amp;quot;Apple SD Gothic Neo&amp;quot;, &amp;quot;Yu Gothic&amp;quot;, &amp;quot;Microsoft YaHei&amp;quot;, &amp;quot;Microsoft JhengHei&amp;quot;, Meiryo; letter-spacing: 0.08px; background-color: oklch(0.9902 0.004 106.47);&quot;&gt;$$c_{t}^{KV}$$&lt;/span&gt;&lt;/span&gt;&lt;/font&gt;&lt;/div&gt;&lt;div style=&quot;text-align: left;&quot;&gt;&lt;font&gt;&lt;font&gt;&lt;span style=&quot;background-color: rgb(255, 255, 255); color: rgb(232, 62, 140); font-family: SFMono-Regular, Menlo, Monaco, Consolas, &amp;quot;Liberation Mono&amp;quot;, &amp;quot;Courier New&amp;quot;, monospace;&quot;&gt;&lt;span style=&quot;color: oklch(0.3039 0.04 213.68); font-family: fkGroteskNeue, ui-sans-serif, system-ui, -apple-system, &amp;quot;system-ui&amp;quot;, &amp;quot;Segoe UI&amp;quot;, Roboto, &amp;quot;Helvetica Neue&amp;quot;, Arial, &amp;quot;Noto Sans&amp;quot;, sans-serif, &amp;quot;Apple Color Emoji&amp;quot;, &amp;quot;Segoe UI Emoji&amp;quot;, &amp;quot;Segoe UI Symbol&amp;quot;, &amp;quot;Noto Color Emoji&amp;quot;, &amp;quot;Hiragino Sans&amp;quot;, &amp;quot;PingFang SC&amp;quot;, &amp;quot;Apple SD Gothic Neo&amp;quot;, &amp;quot;Yu Gothic&amp;quot;, &amp;quot;Microsoft YaHei&amp;quot;, &amp;quot;Microsoft JhengHei&amp;quot;, Meiryo; letter-spacing: 0.08px; background-color: oklch(0.9902 0.004 106.47);&quot;&gt;&lt;font&gt;&lt;font&gt;（B, S,&lt;span style=&quot;font-family: MonospacedNumber, LarkHackSafariFont, LarkEmojiFont, LarkChineseQuote, -apple-system, BlinkMacSystemFont, &amp;quot;Helvetica Neue&amp;quot;, Tahoma, &amp;quot;PingFang SC&amp;quot;, &amp;quot;Microsoft Yahei&amp;quot;, Arial, &amp;quot;Hiragino Sans GB&amp;quot;, sans-serif, &amp;quot;Apple Color Emoji&amp;quot;, &amp;quot;Segoe UI Emoji&amp;quot;, &amp;quot;Segoe UI Symbol&amp;quot;, &amp;quot;Noto Color Emoji&amp;quot;; white-space: pre; letter-spacing: 0.08px;&quot;&gt; kv_lora_rank+qk_rope_head_dim&lt;/span&gt;&lt;/font&gt;&lt;/font&gt;&lt;/span&gt;&lt;/span&gt;&lt;/font&gt;&lt;span style=&quot;background-color: oklch(0.9902 0.004 106.47); color: oklch(0.3039 0.04 213.68); font-family: fkGroteskNeue, ui-sans-serif, system-ui, -apple-system, &amp;quot;system-ui&amp;quot;, &amp;quot;Segoe UI&amp;quot;, Roboto, &amp;quot;Helvetica Neue&amp;quot;, Arial, &amp;quot;Noto Sans&amp;quot;, sans-serif, &amp;quot;Apple Color Emoji&amp;quot;, &amp;quot;Segoe UI Emoji&amp;quot;, &amp;quot;Segoe UI Symbol&amp;quot;, &amp;quot;Noto Color Emoji&amp;quot;, &amp;quot;Hiragino Sans&amp;quot;, &amp;quot;PingFang SC&amp;quot;, &amp;quot;Apple SD Gothic Neo&amp;quot;, &amp;quot;Yu Gothic&amp;quot;, &amp;quot;Microsoft YaHei&amp;quot;, &amp;quot;Microsoft JhengHei&amp;quot;, Meiryo; letter-spacing: 0.08px;&quot;&gt;）&lt;/span&gt;&lt;/font&gt;&lt;/div&gt;" style="rounded=1;whiteSpace=wrap;html=1;fontSize=10;" parent="1" vertex="1">
          <mxGeometry x="340" y="180" width="220" height="50" as="geometry" />
        </mxCell>
        <mxCell id="SX0KhMAPh3eLkheETd_z-9" value="&lt;div style=&quot;text-align: left;&quot;&gt;&lt;font face=&quot;fkGroteskNeue, ui-sans-serif, system-ui, -apple-system, system-ui, Segoe UI, Roboto, Helvetica Neue, Arial, Noto Sans, sans-serif, Apple Color Emoji, Segoe UI Emoji, Segoe UI Symbol, Noto Color Emoji, Hiragino Sans, PingFang SC, Apple SD Gothic Neo, Yu Gothic, Microsoft YaHei, Microsoft JhengHei, Meiryo&quot; color=&quot;oklch(0.3039 0.04 213.68)&quot;&gt;&lt;span style=&quot;letter-spacing: 0.08px; background-color: oklch(0.9902 0.004 106.47);&quot;&gt;rms&lt;/span&gt;&lt;/font&gt;&lt;/div&gt;" style="rounded=1;whiteSpace=wrap;html=1;fontSize=10;" parent="1" vertex="1">
          <mxGeometry x="-78.57" y="260" width="140" height="50" as="geometry" />
        </mxCell>
        <mxCell id="SX0KhMAPh3eLkheETd_z-12" value="&lt;div style=&quot;text-align: left;&quot;&gt;&lt;font&gt;&lt;span style=&quot;background-color: rgb(255, 255, 255); color: rgb(232, 62, 140); font-family: SFMono-Regular, Menlo, Monaco, Consolas, &amp;quot;Liberation Mono&amp;quot;, &amp;quot;Courier New&amp;quot;, monospace;&quot;&gt;&lt;span style=&quot;color: oklch(0.3039 0.04 213.68); font-family: fkGroteskNeue, ui-sans-serif, system-ui, -apple-system, &amp;quot;system-ui&amp;quot;, &amp;quot;Segoe UI&amp;quot;, Roboto, &amp;quot;Helvetica Neue&amp;quot;, Arial, &amp;quot;Noto Sans&amp;quot;, sans-serif, &amp;quot;Apple Color Emoji&amp;quot;, &amp;quot;Segoe UI Emoji&amp;quot;, &amp;quot;Segoe UI Symbol&amp;quot;, &amp;quot;Noto Color Emoji&amp;quot;, &amp;quot;Hiragino Sans&amp;quot;, &amp;quot;PingFang SC&amp;quot;, &amp;quot;Apple SD Gothic Neo&amp;quot;, &amp;quot;Yu Gothic&amp;quot;, &amp;quot;Microsoft YaHei&amp;quot;, &amp;quot;Microsoft JhengHei&amp;quot;, Meiryo; letter-spacing: 0.08px; background-color: oklch(0.9902 0.004 106.47);&quot;&gt;$$q_{t,i}^{R}$$&lt;/span&gt;&lt;/span&gt;&lt;/font&gt;&lt;/div&gt;&lt;div style=&quot;text-align: left;&quot;&gt;&lt;font&gt;&lt;span style=&quot;background-color: rgb(255, 255, 255); color: rgb(232, 62, 140); font-family: SFMono-Regular, Menlo, Monaco, Consolas, &amp;quot;Liberation Mono&amp;quot;, &amp;quot;Courier New&amp;quot;, monospace;&quot;&gt;&lt;span style=&quot;color: oklch(0.3039 0.04 213.68); font-family: fkGroteskNeue, ui-sans-serif, system-ui, -apple-system, &amp;quot;system-ui&amp;quot;, &amp;quot;Segoe UI&amp;quot;, Roboto, &amp;quot;Helvetica Neue&amp;quot;, Arial, &amp;quot;Noto Sans&amp;quot;, sans-serif, &amp;quot;Apple Color Emoji&amp;quot;, &amp;quot;Segoe UI Emoji&amp;quot;, &amp;quot;Segoe UI Symbol&amp;quot;, &amp;quot;Noto Color Emoji&amp;quot;, &amp;quot;Hiragino Sans&amp;quot;, &amp;quot;PingFang SC&amp;quot;, &amp;quot;Apple SD Gothic Neo&amp;quot;, &amp;quot;Yu Gothic&amp;quot;, &amp;quot;Microsoft YaHei&amp;quot;, &amp;quot;Microsoft JhengHei&amp;quot;, Meiryo; letter-spacing: 0.08px; background-color: oklch(0.9902 0.004 106.47);&quot;&gt;&lt;font&gt;（B, S, head_num*qk_rope_head_dim&lt;/font&gt;）&lt;/span&gt;&lt;/span&gt;&lt;/font&gt;&lt;/div&gt;" style="rounded=1;whiteSpace=wrap;html=1;fontSize=10;" parent="1" vertex="1">
          <mxGeometry x="-206" y="340" width="210" height="50" as="geometry" />
        </mxCell>
        <mxCell id="SX0KhMAPh3eLkheETd_z-13" value="&lt;div style=&quot;text-align: left;&quot;&gt;&lt;font&gt;&lt;span style=&quot;background-color: rgb(255, 255, 255); color: rgb(232, 62, 140); font-family: SFMono-Regular, Menlo, Monaco, Consolas, &amp;quot;Liberation Mono&amp;quot;, &amp;quot;Courier New&amp;quot;, monospace;&quot;&gt;&lt;span style=&quot;color: oklch(0.3039 0.04 213.68); font-family: fkGroteskNeue, ui-sans-serif, system-ui, -apple-system, &amp;quot;system-ui&amp;quot;, &amp;quot;Segoe UI&amp;quot;, Roboto, &amp;quot;Helvetica Neue&amp;quot;, Arial, &amp;quot;Noto Sans&amp;quot;, sans-serif, &amp;quot;Apple Color Emoji&amp;quot;, &amp;quot;Segoe UI Emoji&amp;quot;, &amp;quot;Segoe UI Symbol&amp;quot;, &amp;quot;Noto Color Emoji&amp;quot;, &amp;quot;Hiragino Sans&amp;quot;, &amp;quot;PingFang SC&amp;quot;, &amp;quot;Apple SD Gothic Neo&amp;quot;, &amp;quot;Yu Gothic&amp;quot;, &amp;quot;Microsoft YaHei&amp;quot;, &amp;quot;Microsoft JhengHei&amp;quot;, Meiryo; letter-spacing: 0.08px; background-color: oklch(0.9902 0.004 106.47);&quot;&gt;$$qk_{t,i}^{C}$$&lt;/span&gt;&lt;/span&gt;&lt;/font&gt;&lt;/div&gt;&lt;div style=&quot;text-align: left;&quot;&gt;&lt;font&gt;&lt;span style=&quot;background-color: rgb(255, 255, 255); color: rgb(232, 62, 140); font-family: SFMono-Regular, Menlo, Monaco, Consolas, &amp;quot;Liberation Mono&amp;quot;, &amp;quot;Courier New&amp;quot;, monospace;&quot;&gt;&lt;span style=&quot;color: oklch(0.3039 0.04 213.68); font-family: fkGroteskNeue, ui-sans-serif, system-ui, -apple-system, &amp;quot;system-ui&amp;quot;, &amp;quot;Segoe UI&amp;quot;, Roboto, &amp;quot;Helvetica Neue&amp;quot;, Arial, &amp;quot;Noto Sans&amp;quot;, sans-serif, &amp;quot;Apple Color Emoji&amp;quot;, &amp;quot;Segoe UI Emoji&amp;quot;, &amp;quot;Segoe UI Symbol&amp;quot;, &amp;quot;Noto Color Emoji&amp;quot;, &amp;quot;Hiragino Sans&amp;quot;, &amp;quot;PingFang SC&amp;quot;, &amp;quot;Apple SD Gothic Neo&amp;quot;, &amp;quot;Yu Gothic&amp;quot;, &amp;quot;Microsoft YaHei&amp;quot;, &amp;quot;Microsoft JhengHei&amp;quot;, Meiryo; letter-spacing: 0.08px; background-color: oklch(0.9902 0.004 106.47);&quot;&gt;&lt;font&gt;（B, S, head_num*kv_lora_rank&lt;/font&gt;）&lt;/span&gt;&lt;/span&gt;&lt;/font&gt;&lt;/div&gt;" style="rounded=1;whiteSpace=wrap;html=1;fontSize=10;" parent="1" vertex="1">
          <mxGeometry x="34" y="340" width="190" height="50" as="geometry" />
        </mxCell>
        <mxCell id="SX0KhMAPh3eLkheETd_z-14" value="&lt;div style=&quot;text-align: left;&quot;&gt;&lt;font face=&quot;fkGroteskNeue, ui-sans-serif, system-ui, -apple-system, system-ui, Segoe UI, Roboto, Helvetica Neue, Arial, Noto Sans, sans-serif, Apple Color Emoji, Segoe UI Emoji, Segoe UI Symbol, Noto Color Emoji, Hiragino Sans, PingFang SC, Apple SD Gothic Neo, Yu Gothic, Microsoft YaHei, Microsoft JhengHei, Meiryo&quot; color=&quot;#003913&quot;&gt;&lt;span style=&quot;letter-spacing: 0.08px; background-color: oklch(0.9902 0.004 106.47);&quot;&gt;rope&lt;/span&gt;&lt;/font&gt;&lt;/div&gt;" style="rounded=1;whiteSpace=wrap;html=1;fontSize=10;" parent="1" vertex="1">
          <mxGeometry x="-171" y="413" width="140" height="50" as="geometry" />
        </mxCell>
        <mxCell id="SX0KhMAPh3eLkheETd_z-16" value="&lt;div style=&quot;text-align: left;&quot;&gt;&lt;font&gt;&lt;span style=&quot;background-color: rgb(255, 255, 255); color: rgb(232, 62, 140); font-family: SFMono-Regular, Menlo, Monaco, Consolas, &amp;quot;Liberation Mono&amp;quot;, &amp;quot;Courier New&amp;quot;, monospace;&quot;&gt;&lt;span style=&quot;color: oklch(0.3039 0.04 213.68); font-family: fkGroteskNeue, ui-sans-serif, system-ui, -apple-system, &amp;quot;system-ui&amp;quot;, &amp;quot;Segoe UI&amp;quot;, Roboto, &amp;quot;Helvetica Neue&amp;quot;, Arial, &amp;quot;Noto Sans&amp;quot;, sans-serif, &amp;quot;Apple Color Emoji&amp;quot;, &amp;quot;Segoe UI Emoji&amp;quot;, &amp;quot;Segoe UI Symbol&amp;quot;, &amp;quot;Noto Color Emoji&amp;quot;, &amp;quot;Hiragino Sans&amp;quot;, &amp;quot;PingFang SC&amp;quot;, &amp;quot;Apple SD Gothic Neo&amp;quot;, &amp;quot;Yu Gothic&amp;quot;, &amp;quot;Microsoft YaHei&amp;quot;, &amp;quot;Microsoft JhengHei&amp;quot;, Meiryo; letter-spacing: 0.08px; background-color: oklch(0.9902 0.004 106.47);&quot;&gt;$$concat[q_{t,i}^{R}, qk_{t,i}^{C}]$$&lt;/span&gt;&lt;/span&gt;&lt;/font&gt;&lt;/div&gt;&lt;div style=&quot;text-align: left;&quot;&gt;&lt;font&gt;&lt;span style=&quot;background-color: rgb(255, 255, 255); color: rgb(232, 62, 140); font-family: SFMono-Regular, Menlo, Monaco, Consolas, &amp;quot;Liberation Mono&amp;quot;, &amp;quot;Courier New&amp;quot;, monospace;&quot;&gt;&lt;span style=&quot;color: oklch(0.3039 0.04 213.68); font-family: fkGroteskNeue, ui-sans-serif, system-ui, -apple-system, &amp;quot;system-ui&amp;quot;, &amp;quot;Segoe UI&amp;quot;, Roboto, &amp;quot;Helvetica Neue&amp;quot;, Arial, &amp;quot;Noto Sans&amp;quot;, sans-serif, &amp;quot;Apple Color Emoji&amp;quot;, &amp;quot;Segoe UI Emoji&amp;quot;, &amp;quot;Segoe UI Symbol&amp;quot;, &amp;quot;Noto Color Emoji&amp;quot;, &amp;quot;Hiragino Sans&amp;quot;, &amp;quot;PingFang SC&amp;quot;, &amp;quot;Apple SD Gothic Neo&amp;quot;, &amp;quot;Yu Gothic&amp;quot;, &amp;quot;Microsoft YaHei&amp;quot;, &amp;quot;Microsoft JhengHei&amp;quot;, Meiryo; letter-spacing: 0.08px; background-color: oklch(0.9902 0.004 106.47);&quot;&gt;&lt;font&gt;（B, S, head_num*(qk_rope_head_dim+kv_lora_rank））&lt;/font&gt;&lt;/span&gt;&lt;/span&gt;&lt;/font&gt;&lt;/div&gt;" style="rounded=1;whiteSpace=wrap;html=1;fontSize=10;" parent="1" vertex="1">
          <mxGeometry x="-126" y="490" width="290" height="50" as="geometry" />
        </mxCell>
        <mxCell id="SX0KhMAPh3eLkheETd_z-17" value="&lt;div style=&quot;text-align: left;&quot;&gt;&lt;font&gt;&lt;span style=&quot;background-color: rgb(255, 255, 255); color: rgb(232, 62, 140); font-family: SFMono-Regular, Menlo, Monaco, Consolas, &amp;quot;Liberation Mono&amp;quot;, &amp;quot;Courier New&amp;quot;, monospace;&quot;&gt;&lt;span style=&quot;color: oklch(0.3039 0.04 213.68); font-family: fkGroteskNeue, ui-sans-serif, system-ui, -apple-system, &amp;quot;system-ui&amp;quot;, &amp;quot;Segoe UI&amp;quot;, Roboto, &amp;quot;Helvetica Neue&amp;quot;, Arial, &amp;quot;Noto Sans&amp;quot;, sans-serif, &amp;quot;Apple Color Emoji&amp;quot;, &amp;quot;Segoe UI Emoji&amp;quot;, &amp;quot;Segoe UI Symbol&amp;quot;, &amp;quot;Noto Color Emoji&amp;quot;, &amp;quot;Hiragino Sans&amp;quot;, &amp;quot;PingFang SC&amp;quot;, &amp;quot;Apple SD Gothic Neo&amp;quot;, &amp;quot;Yu Gothic&amp;quot;, &amp;quot;Microsoft YaHei&amp;quot;, &amp;quot;Microsoft JhengHei&amp;quot;, Meiryo; letter-spacing: 0.08px; background-color: oklch(0.9902 0.004 106.47);&quot;&gt;$$k_{t}^{R}$$&lt;/span&gt;&lt;/span&gt;&lt;/font&gt;&lt;/div&gt;&lt;div style=&quot;text-align: left;&quot;&gt;&lt;font&gt;&lt;span style=&quot;background-color: rgb(255, 255, 255); color: rgb(232, 62, 140); font-family: SFMono-Regular, Menlo, Monaco, Consolas, &amp;quot;Liberation Mono&amp;quot;, &amp;quot;Courier New&amp;quot;, monospace;&quot;&gt;&lt;span style=&quot;color: oklch(0.3039 0.04 213.68); font-family: fkGroteskNeue, ui-sans-serif, system-ui, -apple-system, &amp;quot;system-ui&amp;quot;, &amp;quot;Segoe UI&amp;quot;, Roboto, &amp;quot;Helvetica Neue&amp;quot;, Arial, &amp;quot;Noto Sans&amp;quot;, sans-serif, &amp;quot;Apple Color Emoji&amp;quot;, &amp;quot;Segoe UI Emoji&amp;quot;, &amp;quot;Segoe UI Symbol&amp;quot;, &amp;quot;Noto Color Emoji&amp;quot;, &amp;quot;Hiragino Sans&amp;quot;, &amp;quot;PingFang SC&amp;quot;, &amp;quot;Apple SD Gothic Neo&amp;quot;, &amp;quot;Yu Gothic&amp;quot;, &amp;quot;Microsoft YaHei&amp;quot;, &amp;quot;Microsoft JhengHei&amp;quot;, Meiryo; letter-spacing: 0.08px; background-color: oklch(0.9902 0.004 106.47);&quot;&gt;&lt;font&gt;（B, S, qk_rope_head_dim&lt;/font&gt;）&lt;/span&gt;&lt;/span&gt;&lt;/font&gt;&lt;/div&gt;" style="rounded=1;whiteSpace=wrap;html=1;fontSize=10;" parent="1" vertex="1">
          <mxGeometry x="270" y="260" width="210" height="50" as="geometry" />
        </mxCell>
        <mxCell id="SX0KhMAPh3eLkheETd_z-18" value="&lt;div style=&quot;text-align: left;&quot;&gt;&lt;font&gt;&lt;span style=&quot;background-color: rgb(255, 255, 255); color: rgb(232, 62, 140); font-family: SFMono-Regular, Menlo, Monaco, Consolas, &amp;quot;Liberation Mono&amp;quot;, &amp;quot;Courier New&amp;quot;, monospace;&quot;&gt;&lt;span style=&quot;color: oklch(0.3039 0.04 213.68); font-family: fkGroteskNeue, ui-sans-serif, system-ui, -apple-system, &amp;quot;system-ui&amp;quot;, &amp;quot;Segoe UI&amp;quot;, Roboto, &amp;quot;Helvetica Neue&amp;quot;, Arial, &amp;quot;Noto Sans&amp;quot;, sans-serif, &amp;quot;Apple Color Emoji&amp;quot;, &amp;quot;Segoe UI Emoji&amp;quot;, &amp;quot;Segoe UI Symbol&amp;quot;, &amp;quot;Noto Color Emoji&amp;quot;, &amp;quot;Hiragino Sans&amp;quot;, &amp;quot;PingFang SC&amp;quot;, &amp;quot;Apple SD Gothic Neo&amp;quot;, &amp;quot;Yu Gothic&amp;quot;, &amp;quot;Microsoft YaHei&amp;quot;, &amp;quot;Microsoft JhengHei&amp;quot;, Meiryo; letter-spacing: 0.08px; background-color: oklch(0.9902 0.004 106.47);&quot;&gt;$$k_{t}^{R}$$&lt;/span&gt;&lt;/span&gt;&lt;/font&gt;&lt;/div&gt;&lt;div style=&quot;text-align: left;&quot;&gt;&lt;font&gt;&lt;span style=&quot;background-color: rgb(255, 255, 255); color: rgb(232, 62, 140); font-family: SFMono-Regular, Menlo, Monaco, Consolas, &amp;quot;Liberation Mono&amp;quot;, &amp;quot;Courier New&amp;quot;, monospace;&quot;&gt;&lt;span style=&quot;color: oklch(0.3039 0.04 213.68); font-family: fkGroteskNeue, ui-sans-serif, system-ui, -apple-system, &amp;quot;system-ui&amp;quot;, &amp;quot;Segoe UI&amp;quot;, Roboto, &amp;quot;Helvetica Neue&amp;quot;, Arial, &amp;quot;Noto Sans&amp;quot;, sans-serif, &amp;quot;Apple Color Emoji&amp;quot;, &amp;quot;Segoe UI Emoji&amp;quot;, &amp;quot;Segoe UI Symbol&amp;quot;, &amp;quot;Noto Color Emoji&amp;quot;, &amp;quot;Hiragino Sans&amp;quot;, &amp;quot;PingFang SC&amp;quot;, &amp;quot;Apple SD Gothic Neo&amp;quot;, &amp;quot;Yu Gothic&amp;quot;, &amp;quot;Microsoft YaHei&amp;quot;, &amp;quot;Microsoft JhengHei&amp;quot;, Meiryo; letter-spacing: 0.08px; background-color: oklch(0.9902 0.004 106.47);&quot;&gt;&lt;font&gt;（B, S, qk_rope_head_dim&lt;/font&gt;）&lt;/span&gt;&lt;/span&gt;&lt;/font&gt;&lt;/div&gt;" style="rounded=1;whiteSpace=wrap;html=1;fontSize=10;" parent="1" vertex="1">
          <mxGeometry x="540" y="260" width="210" height="50" as="geometry" />
        </mxCell>
        <mxCell id="SX0KhMAPh3eLkheETd_z-19" value="&lt;div style=&quot;text-align: left;&quot;&gt;&lt;font face=&quot;fkGroteskNeue, ui-sans-serif, system-ui, -apple-system, system-ui, Segoe UI, Roboto, Helvetica Neue, Arial, Noto Sans, sans-serif, Apple Color Emoji, Segoe UI Emoji, Segoe UI Symbol, Noto Color Emoji, Hiragino Sans, PingFang SC, Apple SD Gothic Neo, Yu Gothic, Microsoft YaHei, Microsoft JhengHei, Meiryo&quot; color=&quot;#003913&quot;&gt;&lt;span style=&quot;letter-spacing: 0.08px; background-color: oklch(0.9902 0.004 106.47);&quot;&gt;rope&lt;/span&gt;&lt;/font&gt;&lt;/div&gt;" style="rounded=1;whiteSpace=wrap;html=1;fontSize=10;" parent="1" vertex="1">
          <mxGeometry x="310" y="340" width="140" height="50" as="geometry" />
        </mxCell>
        <mxCell id="SX0KhMAPh3eLkheETd_z-20" value="&lt;div style=&quot;text-align: left;&quot;&gt;&lt;font face=&quot;fkGroteskNeue, ui-sans-serif, system-ui, -apple-system, system-ui, Segoe UI, Roboto, Helvetica Neue, Arial, Noto Sans, sans-serif, Apple Color Emoji, Segoe UI Emoji, Segoe UI Symbol, Noto Color Emoji, Hiragino Sans, PingFang SC, Apple SD Gothic Neo, Yu Gothic, Microsoft YaHei, Microsoft JhengHei, Meiryo&quot; color=&quot;oklch(0.3039 0.04 213.68)&quot;&gt;&lt;span style=&quot;letter-spacing: 0.08px; background-color: oklch(0.9902 0.004 106.47);&quot;&gt;rms&lt;/span&gt;&lt;/font&gt;&lt;/div&gt;" style="rounded=1;whiteSpace=wrap;html=1;fontSize=10;" parent="1" vertex="1">
          <mxGeometry x="580" y="340" width="140" height="50" as="geometry" />
        </mxCell>
        <mxCell id="SX0KhMAPh3eLkheETd_z-21" value="&lt;div style=&quot;text-align: left;&quot;&gt;&lt;font&gt;&lt;span style=&quot;background-color: rgb(255, 255, 255); color: rgb(232, 62, 140); font-family: SFMono-Regular, Menlo, Monaco, Consolas, &amp;quot;Liberation Mono&amp;quot;, &amp;quot;Courier New&amp;quot;, monospace;&quot;&gt;&lt;span style=&quot;color: oklch(0.3039 0.04 213.68); font-family: fkGroteskNeue, ui-sans-serif, system-ui, -apple-system, &amp;quot;system-ui&amp;quot;, &amp;quot;Segoe UI&amp;quot;, Roboto, &amp;quot;Helvetica Neue&amp;quot;, Arial, &amp;quot;Noto Sans&amp;quot;, sans-serif, &amp;quot;Apple Color Emoji&amp;quot;, &amp;quot;Segoe UI Emoji&amp;quot;, &amp;quot;Segoe UI Symbol&amp;quot;, &amp;quot;Noto Color Emoji&amp;quot;, &amp;quot;Hiragino Sans&amp;quot;, &amp;quot;PingFang SC&amp;quot;, &amp;quot;Apple SD Gothic Neo&amp;quot;, &amp;quot;Yu Gothic&amp;quot;, &amp;quot;Microsoft YaHei&amp;quot;, &amp;quot;Microsoft JhengHei&amp;quot;, Meiryo; letter-spacing: 0.08px; background-color: oklch(0.9902 0.004 106.47);&quot;&gt;$$concat[k_{t,i}^{R}, kv_{t,i}^{C}]$$&lt;/span&gt;&lt;/span&gt;&lt;/font&gt;&lt;/div&gt;&lt;div style=&quot;text-align: left;&quot;&gt;&lt;font&gt;&lt;span style=&quot;background-color: rgb(255, 255, 255); color: rgb(232, 62, 140); font-family: SFMono-Regular, Menlo, Monaco, Consolas, &amp;quot;Liberation Mono&amp;quot;, &amp;quot;Courier New&amp;quot;, monospace;&quot;&gt;&lt;span style=&quot;color: oklch(0.3039 0.04 213.68); font-family: fkGroteskNeue, ui-sans-serif, system-ui, -apple-system, &amp;quot;system-ui&amp;quot;, &amp;quot;Segoe UI&amp;quot;, Roboto, &amp;quot;Helvetica Neue&amp;quot;, Arial, &amp;quot;Noto Sans&amp;quot;, sans-serif, &amp;quot;Apple Color Emoji&amp;quot;, &amp;quot;Segoe UI Emoji&amp;quot;, &amp;quot;Segoe UI Symbol&amp;quot;, &amp;quot;Noto Color Emoji&amp;quot;, &amp;quot;Hiragino Sans&amp;quot;, &amp;quot;PingFang SC&amp;quot;, &amp;quot;Apple SD Gothic Neo&amp;quot;, &amp;quot;Yu Gothic&amp;quot;, &amp;quot;Microsoft YaHei&amp;quot;, &amp;quot;Microsoft JhengHei&amp;quot;, Meiryo; letter-spacing: 0.08px; background-color: oklch(0.9902 0.004 106.47);&quot;&gt;&lt;font&gt;（B, S, qk_rope_head_dim+kv_lora_rank））&lt;/font&gt;&lt;/span&gt;&lt;/span&gt;&lt;/font&gt;&lt;/div&gt;" style="rounded=1;whiteSpace=wrap;html=1;fontSize=10;" parent="1" vertex="1">
          <mxGeometry x="370" y="490" width="290" height="50" as="geometry" />
        </mxCell>
        <mxCell id="SX0KhMAPh3eLkheETd_z-22" value="&lt;div style=&quot;text-align: left;&quot;&gt;&lt;font face=&quot;fkGroteskNeue, ui-sans-serif, system-ui, -apple-system, system-ui, Segoe UI, Roboto, Helvetica Neue, Arial, Noto Sans, sans-serif, Apple Color Emoji, Segoe UI Emoji, Segoe UI Symbol, Noto Color Emoji, Hiragino Sans, PingFang SC, Apple SD Gothic Neo, Yu Gothic, Microsoft YaHei, Microsoft JhengHei, Meiryo&quot; color=&quot;oklch(0.3039 0.04 213.68)&quot;&gt;&lt;span style=&quot;letter-spacing: 0.08px; background-color: oklch(0.9902 0.004 106.47);&quot;&gt;matmul&lt;/span&gt;&lt;/font&gt;&lt;/div&gt;" style="rounded=1;whiteSpace=wrap;html=1;fontSize=10;" parent="1" vertex="1">
          <mxGeometry x="70" y="590" width="290" height="50" as="geometry" />
        </mxCell>
        <mxCell id="SX0KhMAPh3eLkheETd_z-23" value="&lt;div style=&quot;text-align: left;&quot;&gt;&lt;font face=&quot;fkGroteskNeue, ui-sans-serif, system-ui, -apple-system, system-ui, Segoe UI, Roboto, Helvetica Neue, Arial, Noto Sans, sans-serif, Apple Color Emoji, Segoe UI Emoji, Segoe UI Symbol, Noto Color Emoji, Hiragino Sans, PingFang SC, Apple SD Gothic Neo, Yu Gothic, Microsoft YaHei, Microsoft JhengHei, Meiryo&quot; color=&quot;#003913&quot;&gt;&lt;span style=&quot;letter-spacing: 0.08px; background-color: oklch(0.9902 0.004 106.47);&quot;&gt;divide&lt;/span&gt;&lt;/font&gt;&lt;/div&gt;" style="rounded=1;whiteSpace=wrap;html=1;fontSize=10;" parent="1" vertex="1">
          <mxGeometry x="70" y="660" width="290" height="50" as="geometry" />
        </mxCell>
        <mxCell id="SX0KhMAPh3eLkheETd_z-24" value="&lt;div style=&quot;text-align: left;&quot;&gt;&lt;font face=&quot;fkGroteskNeue, ui-sans-serif, system-ui, -apple-system, system-ui, Segoe UI, Roboto, Helvetica Neue, Arial, Noto Sans, sans-serif, Apple Color Emoji, Segoe UI Emoji, Segoe UI Symbol, Noto Color Emoji, Hiragino Sans, PingFang SC, Apple SD Gothic Neo, Yu Gothic, Microsoft YaHei, Microsoft JhengHei, Meiryo&quot; color=&quot;#003913&quot;&gt;&lt;span style=&quot;letter-spacing: 0.08px; background-color: oklch(0.9902 0.004 106.47);&quot;&gt;mask&lt;/span&gt;&lt;/font&gt;&lt;/div&gt;" style="rounded=1;whiteSpace=wrap;html=1;fontSize=10;" parent="1" vertex="1">
          <mxGeometry x="70" y="730" width="290" height="50" as="geometry" />
        </mxCell>
        <mxCell id="SX0KhMAPh3eLkheETd_z-25" value="&lt;div style=&quot;text-align: left;&quot;&gt;&lt;font face=&quot;fkGroteskNeue, ui-sans-serif, system-ui, -apple-system, system-ui, Segoe UI, Roboto, Helvetica Neue, Arial, Noto Sans, sans-serif, Apple Color Emoji, Segoe UI Emoji, Segoe UI Symbol, Noto Color Emoji, Hiragino Sans, PingFang SC, Apple SD Gothic Neo, Yu Gothic, Microsoft YaHei, Microsoft JhengHei, Meiryo&quot; color=&quot;#003913&quot;&gt;&lt;span style=&quot;letter-spacing: 0.08px; background-color: oklch(0.9902 0.004 106.47);&quot;&gt;softmax&lt;/span&gt;&lt;/font&gt;&lt;/div&gt;" style="rounded=1;whiteSpace=wrap;html=1;fontSize=10;" parent="1" vertex="1">
          <mxGeometry x="70" y="800" width="290" height="50" as="geometry" />
        </mxCell>
        <mxCell id="SX0KhMAPh3eLkheETd_z-26" value="&lt;div style=&quot;text-align: left;&quot;&gt;&lt;font face=&quot;fkGroteskNeue, ui-sans-serif, system-ui, -apple-system, system-ui, Segoe UI, Roboto, Helvetica Neue, Arial, Noto Sans, sans-serif, Apple Color Emoji, Segoe UI Emoji, Segoe UI Symbol, Noto Color Emoji, Hiragino Sans, PingFang SC, Apple SD Gothic Neo, Yu Gothic, Microsoft YaHei, Microsoft JhengHei, Meiryo&quot; color=&quot;#003913&quot;&gt;&lt;span style=&quot;letter-spacing: 0.08px; background-color: oklch(0.9902 0.004 106.47);&quot;&gt;matmul&lt;/span&gt;&lt;/font&gt;&lt;/div&gt;" style="rounded=1;whiteSpace=wrap;html=1;fontSize=10;" parent="1" vertex="1">
          <mxGeometry x="224" y="890" width="290" height="50" as="geometry" />
        </mxCell>
        <mxCell id="SX0KhMAPh3eLkheETd_z-27" value="&lt;div style=&quot;text-align: left;&quot;&gt;&lt;br&gt;&lt;/div&gt;" style="rounded=1;whiteSpace=wrap;html=1;fontSize=10;" parent="1" vertex="1">
          <mxGeometry x="200" y="1000" width="290" height="50" as="geometry" />
        </mxCell>
        <mxCell id="SX0KhMAPh3eLkheETd_z-28" value="&lt;div style=&quot;text-align: left;&quot;&gt;&lt;font face=&quot;fkGroteskNeue, ui-sans-serif, system-ui, -apple-system, system-ui, Segoe UI, Roboto, Helvetica Neue, Arial, Noto Sans, sans-serif, Apple Color Emoji, Segoe UI Emoji, Segoe UI Symbol, Noto Color Emoji, Hiragino Sans, PingFang SC, Apple SD Gothic Neo, Yu Gothic, Microsoft YaHei, Microsoft JhengHei, Meiryo&quot; color=&quot;#003913&quot;&gt;&lt;span style=&quot;letter-spacing: 0.08px; background-color: oklch(0.9902 0.004 106.47);&quot;&gt;matmul&lt;/span&gt;&lt;/font&gt;&lt;/div&gt;" style="rounded=1;whiteSpace=wrap;html=1;fontSize=10;" parent="1" vertex="1">
          <mxGeometry x="200" y="1080" width="290" height="50" as="geometry" />
        </mxCell>
        <mxCell id="SX0KhMAPh3eLkheETd_z-29" value="" style="endArrow=classic;html=1;rounded=0;exitX=0.5;exitY=1;exitDx=0;exitDy=0;" parent="1" source="SX0KhMAPh3eLkheETd_z-3" target="SX0KhMAPh3eLkheETd_z-9" edge="1">
          <mxGeometry width="50" height="50" relative="1" as="geometry">
            <mxPoint x="80" y="550" as="sourcePoint" />
            <mxPoint x="130" y="500" as="targetPoint" />
          </mxGeometry>
        </mxCell>
        <mxCell id="SX0KhMAPh3eLkheETd_z-30" value="" style="endArrow=classic;html=1;rounded=0;exitX=0.5;exitY=1;exitDx=0;exitDy=0;entryX=0.5;entryY=0;entryDx=0;entryDy=0;" parent="1" source="SX0KhMAPh3eLkheETd_z-9" target="SX0KhMAPh3eLkheETd_z-12" edge="1">
          <mxGeometry width="50" height="50" relative="1" as="geometry">
            <mxPoint x="80" y="550" as="sourcePoint" />
            <mxPoint x="130" y="500" as="targetPoint" />
          </mxGeometry>
        </mxCell>
        <mxCell id="SX0KhMAPh3eLkheETd_z-31" value="" style="endArrow=classic;html=1;rounded=0;exitX=0.5;exitY=1;exitDx=0;exitDy=0;entryX=0.5;entryY=0;entryDx=0;entryDy=0;" parent="1" source="SX0KhMAPh3eLkheETd_z-9" target="SX0KhMAPh3eLkheETd_z-13" edge="1">
          <mxGeometry width="50" height="50" relative="1" as="geometry">
            <mxPoint x="122" y="320" as="sourcePoint" />
            <mxPoint x="30" y="350" as="targetPoint" />
          </mxGeometry>
        </mxCell>
        <mxCell id="SX0KhMAPh3eLkheETd_z-32" value="" style="endArrow=classic;html=1;rounded=0;exitX=0.5;exitY=1;exitDx=0;exitDy=0;" parent="1" source="SX0KhMAPh3eLkheETd_z-12" target="SX0KhMAPh3eLkheETd_z-14" edge="1">
          <mxGeometry width="50" height="50" relative="1" as="geometry">
            <mxPoint x="80" y="550" as="sourcePoint" />
            <mxPoint x="130" y="500" as="targetPoint" />
          </mxGeometry>
        </mxCell>
        <mxCell id="SX0KhMAPh3eLkheETd_z-33" value="" style="endArrow=classic;html=1;rounded=0;exitX=0.5;exitY=1;exitDx=0;exitDy=0;entryX=0.5;entryY=0;entryDx=0;entryDy=0;" parent="1" source="SX0KhMAPh3eLkheETd_z-14" target="SX0KhMAPh3eLkheETd_z-16" edge="1">
          <mxGeometry width="50" height="50" relative="1" as="geometry">
            <mxPoint x="80" y="550" as="sourcePoint" />
            <mxPoint x="130" y="500" as="targetPoint" />
          </mxGeometry>
        </mxCell>
        <mxCell id="SX0KhMAPh3eLkheETd_z-34" value="" style="endArrow=classic;html=1;rounded=0;exitX=0.5;exitY=1;exitDx=0;exitDy=0;" parent="1" source="SX0KhMAPh3eLkheETd_z-13" edge="1">
          <mxGeometry width="50" height="50" relative="1" as="geometry">
            <mxPoint x="18.33" y="390" as="sourcePoint" />
            <mxPoint x="19" y="490" as="targetPoint" />
          </mxGeometry>
        </mxCell>
        <mxCell id="SX0KhMAPh3eLkheETd_z-35" value="" style="endArrow=classic;html=1;rounded=0;exitX=0.5;exitY=1;exitDx=0;exitDy=0;entryX=0.5;entryY=0;entryDx=0;entryDy=0;" parent="1" source="SX0KhMAPh3eLkheETd_z-16" target="SX0KhMAPh3eLkheETd_z-22" edge="1">
          <mxGeometry width="50" height="50" relative="1" as="geometry">
            <mxPoint x="80" y="550" as="sourcePoint" />
            <mxPoint x="130" y="500" as="targetPoint" />
          </mxGeometry>
        </mxCell>
        <mxCell id="SX0KhMAPh3eLkheETd_z-36" value="" style="endArrow=classic;html=1;rounded=0;exitX=0.5;exitY=1;exitDx=0;exitDy=0;" parent="1" source="SX0KhMAPh3eLkheETd_z-21" edge="1">
          <mxGeometry width="50" height="50" relative="1" as="geometry">
            <mxPoint x="80" y="550" as="sourcePoint" />
            <mxPoint x="210" y="590" as="targetPoint" />
          </mxGeometry>
        </mxCell>
        <mxCell id="SX0KhMAPh3eLkheETd_z-37" value="" style="endArrow=classic;html=1;rounded=0;exitX=0.5;exitY=1;exitDx=0;exitDy=0;" parent="1" source="SX0KhMAPh3eLkheETd_z-22" target="SX0KhMAPh3eLkheETd_z-23" edge="1">
          <mxGeometry width="50" height="50" relative="1" as="geometry">
            <mxPoint x="150" y="630" as="sourcePoint" />
            <mxPoint x="200" y="580" as="targetPoint" />
          </mxGeometry>
        </mxCell>
        <mxCell id="SX0KhMAPh3eLkheETd_z-38" value="" style="endArrow=classic;html=1;rounded=0;exitX=0.5;exitY=1;exitDx=0;exitDy=0;entryX=0.5;entryY=0;entryDx=0;entryDy=0;" parent="1" source="SX0KhMAPh3eLkheETd_z-23" target="SX0KhMAPh3eLkheETd_z-24" edge="1">
          <mxGeometry width="50" height="50" relative="1" as="geometry">
            <mxPoint x="150" y="630" as="sourcePoint" />
            <mxPoint x="200" y="580" as="targetPoint" />
          </mxGeometry>
        </mxCell>
        <mxCell id="SX0KhMAPh3eLkheETd_z-39" value="" style="endArrow=classic;html=1;rounded=0;exitX=0.5;exitY=1;exitDx=0;exitDy=0;" parent="1" source="SX0KhMAPh3eLkheETd_z-24" edge="1">
          <mxGeometry width="50" height="50" relative="1" as="geometry">
            <mxPoint x="150" y="630" as="sourcePoint" />
            <mxPoint x="215" y="800" as="targetPoint" />
          </mxGeometry>
        </mxCell>
        <mxCell id="SX0KhMAPh3eLkheETd_z-40" value="" style="endArrow=classic;html=1;rounded=0;exitX=0.5;exitY=1;exitDx=0;exitDy=0;entryX=0.5;entryY=0;entryDx=0;entryDy=0;" parent="1" source="SX0KhMAPh3eLkheETd_z-25" target="SX0KhMAPh3eLkheETd_z-26" edge="1">
          <mxGeometry width="50" height="50" relative="1" as="geometry">
            <mxPoint x="150" y="630" as="sourcePoint" />
            <mxPoint x="200" y="580" as="targetPoint" />
          </mxGeometry>
        </mxCell>
        <mxCell id="SX0KhMAPh3eLkheETd_z-41" value="" style="endArrow=classic;html=1;rounded=0;exitX=0.5;exitY=1;exitDx=0;exitDy=0;entryX=0.5;entryY=0;entryDx=0;entryDy=0;" parent="1" source="SX0KhMAPh3eLkheETd_z-21" target="SX0KhMAPh3eLkheETd_z-26" edge="1">
          <mxGeometry width="50" height="50" relative="1" as="geometry">
            <mxPoint x="150" y="630" as="sourcePoint" />
            <mxPoint x="340" y="890" as="targetPoint" />
          </mxGeometry>
        </mxCell>
        <mxCell id="SX0KhMAPh3eLkheETd_z-42" value="v_head_dim" style="edgeLabel;html=1;align=center;verticalAlign=middle;resizable=0;points=[];" parent="SX0KhMAPh3eLkheETd_z-41" vertex="1" connectable="0">
          <mxGeometry x="-0.0408" y="2" relative="1" as="geometry">
            <mxPoint as="offset" />
          </mxGeometry>
        </mxCell>
      </root>
    </mxGraphModel>
  </diagram>
</mxfile>
